<?xml version="1.0" encoding="UTF-8"?>
<svg width="96px" height="96px" viewBox="0 0 96 96" version="1.1" xmlns="http://www.w3.org/2000/svg" xmlns:xlink="http://www.w3.org/1999/xlink">
    <!-- Generator: Sketch 46.2 (44496) - http://www.bohemiancoding.com/sketch -->
    <title>Group</title>
    <desc>Created with Sketch.</desc>
    <defs></defs>
    <g id="Page-1" stroke="none" stroke-width="1" fill="none" fill-rule="evenodd">
        <g id="noun_1042912_cc" transform="translate(-2.000000, 0.000000)" fill-rule="nonzero" fill="#000000">
            <g id="Group" transform="translate(2.000000, 0.000000)">
                <path d="M48,0.5 C21.8,0.5 0.5,21.8 0.5,48 C0.5,74.2 21.8,95.5 48,95.5 C74.2,95.5 95.5,74.2 95.5,48 C95.5,21.8 74.2,0.5 48,0.5 Z M48,87.1 C26.4,87.1 8.9,69.6 8.9,48 C8.9,26.4 26.4,8.9 48,8.9 C69.6,8.9 87.1,26.4 87.1,48 C87.1,69.6 69.6,87.1 48,87.1 Z" id="Shape"></path>
                <polygon id="Shape" points="62.4 23.7 48 38.1 33.6 23.7 23.7 33.6 38.1 48 23.7 62.4 33.6 72.3 48 57.9 62.4 72.3 72.3 62.4 57.9 48 72.3 33.6"></polygon>
            </g>
        </g>
    </g>
</svg>