<?xml version="1.0" encoding="UTF-8"?>
<svg width="69px" height="74px" viewBox="0 0 69 74" version="1.1" xmlns="http://www.w3.org/2000/svg" xmlns:xlink="http://www.w3.org/1999/xlink">
    <!-- Generator: Sketch 46.2 (44496) - http://www.bohemiancoding.com/sketch -->
    <title>Shape</title>
    <desc>Created with Sketch.</desc>
    <defs></defs>
    <g id="Page-1" stroke="none" stroke-width="1" fill="none" fill-rule="evenodd">
        <g id="noun_1051372_cc" transform="translate(-1.000000, 0.000000)" fill-rule="nonzero" fill="#000000">
            <path d="M1.8,7.6 L25.9,39.4 L25.9,62.4 C25.9,63.4 26.4,64.4 27.3,64.9 L39.6,72.6 C40.1,72.9 40.6,73.1 41.2,73.1 C41.7,73.1 42.2,73 42.7,72.7 C43.7,72.2 44.2,71.2 44.2,70.1 L44.2,39.4 L68.3,7.6 C68.4,7.5 68.4,7.5 68.5,7.4 C69.3,6.1 69.4,4.5 68.6,3.1 C67.9,1.8 66.4,0.9 64.9,0.9 L5.2,0.9 C3.7,0.9 2.2,1.7 1.5,3.1 C0.8,4.4 0.8,6.1 1.6,7.4 C1.7,7.4 1.7,7.5 1.8,7.6 Z M61.2,6.9 L38.8,36.5 C38.4,37 38.2,37.7 38.2,38.3 L38.2,64.6 L31.9,60.7 L31.9,38.4 C31.9,37.7 31.7,37.1 31.3,36.6 L8.8,6.9 L61.2,6.9 Z" id="Shape"></path>
        </g>
    </g>
</svg>